<svg xmlns="http://www.w3.org/2000/svg" data-name="Layer 1" viewBox="0 0 100 125" x="0px" y="0px"><path d="M81.12,77.88l-6.88-6.88,6.88-6.88c.57-.57,.88-1.32,.88-2.12s-.31-1.55-.88-2.12h0c-1.13-1.13-3.11-1.13-4.24,0l-6.88,6.88-6.88-6.88c-1.13-1.13-3.11-1.13-4.24,0-.57,.57-.88,1.32-.88,2.12s.31,1.55,.88,2.12l6.88,6.88-6.88,6.88c-.57,.57-.88,1.32-.88,2.12s.31,1.55,.88,2.12c1.13,1.14,3.11,1.14,4.24,0l6.88-6.88,6.88,6.88c1.13,1.13,3.11,1.13,4.24,0,.57-.57,.88-1.32,.88-2.12s-.31-1.55-.88-2.12Z"/><path d="M72,29.51v-5.51c0-3.87-3.13-7-7-7H25c-3.87,0-7,3.13-7,7v5.51c0,3.47,1.35,6.74,3.81,9.19l12.19,12.19v21.1c0,2.44,1.24,4.67,3.32,5.95,2.03,1.25,4.68,1.38,6.81,.31l4.1-2.05c1.48-.74,2.19-2.54,1.48-4.03-.35-.74-.98-1.3-1.76-1.56-.76-.25-1.57-.2-2.29,.16l-4.21,2.11c-.66,.33-1.45-.15-1.45-.89v-23.59l-13.95-13.95c-1.32-1.32-2.05-3.08-2.05-4.95v-5.51c0-.55,.45-1,1-1h40c.55,0,1,.45,1,1v5.51c0,1.87-.73,3.63-2.05,4.95l-10.34,10.34c-.52,.52-.88,1.19-.94,1.93-.08,.9,.24,1.76,.87,2.39,1.13,1.14,3.11,1.14,4.24,0l10.42-10.41c2.46-2.45,3.81-5.72,3.81-9.19Z"/><text x="0" y="115" fill="#000000" font-size="5px" font-weight="bold" font-family="'Helvetica Neue', Helvetica, Arial-Unicode, Arial, Sans-serif">Created by Gregor Cresnar</text><text x="0" y="120" fill="#000000" font-size="5px" font-weight="bold" font-family="'Helvetica Neue', Helvetica, Arial-Unicode, Arial, Sans-serif">from the Noun Project</text></svg>